<svg width="48" height="48" viewBox="0 0 48 48" fill="none" xmlns="http://www.w3.org/2000/svg">
<rect width="48" height="48" rx="5" fill="#437EF7"/>
<path d="M22.6665 12.0003C22.6665 11.2639 22.0695 10.667 21.3332 10.667C20.5968 10.667 19.9998 11.2639 19.9998 12.0003V16.0003C19.9998 16.7367 20.5968 17.3337 21.3332 17.3337C22.0695 17.3337 22.6665 16.7367 22.6665 16.0003V12.0003Z" fill="white"/>
<path d="M15.6093 13.7242C15.0886 13.2035 14.2444 13.2035 13.7237 13.7242C13.203 14.2449 13.203 15.0891 13.7237 15.6098L16.3904 18.2765C16.9111 18.7972 17.7553 18.7972 18.276 18.2765C18.7967 17.7558 18.7967 16.9115 18.276 16.3909L15.6093 13.7242Z" fill="white"/>
<path d="M28.9426 15.6098C29.4633 15.0891 29.4633 14.2449 28.9426 13.7242C28.4219 13.2035 27.5777 13.2035 27.057 13.7242L24.3904 16.3909C23.8697 16.9115 23.8697 17.7558 24.3904 18.2765C24.9111 18.7972 25.7553 18.7972 26.276 18.2765L28.9426 15.6098Z" fill="white"/>
<path d="M11.9998 20.0003C11.2635 20.0003 10.6665 20.5973 10.6665 21.3337C10.6665 22.07 11.2635 22.667 11.9998 22.667H15.9998C16.7362 22.667 17.3332 22.07 17.3332 21.3337C17.3332 20.5973 16.7362 20.0003 15.9998 20.0003H11.9998Z" fill="white"/>
<path d="M18.276 26.2765C18.7967 25.7558 18.7967 24.9115 18.276 24.3909C17.7553 23.8702 16.9111 23.8702 16.3904 24.3909L13.7237 27.0575C13.203 27.5782 13.203 28.4224 13.7237 28.9431C14.2444 29.4638 15.0886 29.4638 15.6093 28.9431L18.276 26.2765Z" fill="white"/>
<path d="M21.6235 20.0592C21.7874 20.1025 21.9817 20.1732 22.1737 20.2431L33.6281 24.4083C33.9956 24.5419 34.3245 24.6615 34.5778 24.7807C34.8294 24.8992 35.153 25.0807 35.3641 25.413C35.6327 25.8359 35.6998 26.356 35.5475 26.8332C35.4277 27.2083 35.1607 27.466 34.9475 27.6445C34.7328 27.8241 34.4451 28.0233 34.1236 28.2458L33.0813 28.9674C32.8401 29.1343 32.7045 29.2292 32.6129 29.3051L32.6012 29.3149L32.611 29.3267C32.6875 29.4178 32.804 29.5353 33.0114 29.7427L35.3228 32.0541C36.2255 32.9569 36.2255 34.4205 35.3228 35.3233C34.42 36.226 32.9564 36.226 32.0536 35.3233L29.7423 33.0119C29.5348 32.8045 29.4173 32.688 29.3262 32.6115L29.3144 32.6017L29.3046 32.6134C29.2287 32.705 29.1339 32.8406 28.9669 33.0818L28.2454 34.124C28.0228 34.4456 27.8236 34.7333 27.644 34.948C27.4655 35.1612 27.2078 35.4282 26.8327 35.5479C26.3555 35.7003 25.8354 35.6331 25.4126 35.3646C25.0802 35.1535 24.8987 34.8298 24.7802 34.5783C24.661 34.325 24.5414 33.9961 24.4078 33.6286L20.2426 22.1742C20.1727 21.9822 20.102 21.7879 20.0587 21.624C20.0177 21.4692 19.9491 21.1686 20.0601 20.8462C20.1871 20.4774 20.4769 20.1876 20.8457 20.0606C21.1681 19.9495 21.4687 20.0182 21.6235 20.0592Z" fill="white"/>
</svg>
