<svg width="215" height="70" viewBox="0 0 215 70" fill="none" xmlns="http://www.w3.org/2000/svg">
<g clip-path="url(#clip0_1202_171)">
<path d="M29.8253 21.4326C29.8253 11.435 24.9544 2.82486 21.2447 0.0302535C21.2447 0.0302535 20.9593 -0.127189 20.9888 0.276258C20.6838 19.5925 10.8141 24.8275 5.39217 31.873C-7.12451 48.1486 4.50656 65.9888 16.3738 69.2853C22.9864 71.1352 14.8387 66.0184 13.7858 55.2237C12.4968 42.1953 29.8253 32.2371 29.8253 21.4326Z" fill="#1B2143"/>
<path d="M35.5129 28.0157C35.4342 27.9665 35.3259 27.9271 35.2571 28.055C35.0504 30.4856 32.5707 35.6812 29.4218 40.4635C18.7453 56.6604 24.8265 64.4735 28.2509 68.6752C30.2386 71.1057 28.2509 68.6752 33.2103 66.1856C39.3407 62.4661 43.3161 56.0306 43.9066 48.8866C44.8807 37.3737 37.9729 30.1215 35.5129 28.0157Z" fill="#2CA6E0"/>
</g>
<path d="M76.218 45.352C75.114 45.7813 74.2553 45.996 73.642 45.996C71.802 45.996 70.7747 45.7353 70.56 45.214C67.4933 37.3327 65.4693 32.2573 64.488 29.988C64.396 30.816 64.1507 32.7327 63.752 35.738C62.924 41.626 62.51 46.5173 62.51 50.412C62.51 51.3627 62.5713 52.6353 62.694 54.23C60.5473 54.23 59.0907 53.9847 58.324 53.494C57.588 52.9727 57.22 52.252 57.22 51.332C57.22 51.0253 57.726 46.8547 58.738 38.82C59.7807 30.7853 60.302 25.1887 60.302 22.03V21.8C59.4127 20.3587 58.4773 19.178 57.496 18.258C58.6307 17.4607 59.9953 17.062 61.59 17.062C63.614 17.062 65.178 18.0127 66.282 19.914C67.386 21.7847 69.548 26.952 72.768 35.416L74.884 40.844C75.068 40.5373 75.344 40.1233 75.712 39.602C83.1947 28.5313 87.0433 21.018 87.258 17.062C87.258 17.0927 87.626 17.1387 88.362 17.2C89.098 17.2307 89.88 17.384 90.708 17.66C91.5667 17.9053 92.18 18.304 92.548 18.856C92.9467 19.3773 93.192 19.8987 93.284 20.42C93.376 20.9107 93.422 21.7693 93.422 22.996C93.422 24.192 92.916 28.2553 91.904 35.186C90.892 42.1167 90.386 46.9773 90.386 49.768C90.386 52.528 90.6007 54.414 91.03 55.426C88.4233 54.7513 86.6447 53.862 85.694 52.758C84.7433 51.6233 84.268 50.0593 84.268 48.066C84.268 46.9007 84.5747 44.0333 85.188 39.464C85.832 34.8947 86.2767 31.2453 86.522 28.516C85.2953 30.632 83.5473 33.53 81.278 37.21C79.0393 40.89 77.69 43.0827 77.23 43.788C76.77 44.4627 76.4327 44.984 76.218 45.352ZM113.237 30.954C111.244 30.954 109.465 32.3033 107.901 35.002C106.337 37.67 105.555 40.338 105.555 43.006C105.555 48.5873 106.996 51.378 109.879 51.378C111.934 51.378 113.605 50.044 114.893 47.376C116.181 44.6773 116.825 41.6567 116.825 38.314C116.825 33.4073 115.629 30.954 113.237 30.954ZM116.089 27.596C117.929 27.596 119.493 28.5007 120.781 30.31C122.069 32.1193 122.713 34.542 122.713 37.578C122.713 40.982 122.023 44.11 120.643 46.962C119.11 50.182 116.932 52.4053 114.111 53.632C112.516 54.3373 110.768 54.69 108.867 54.69C106.199 54.69 103.868 53.6627 101.875 51.608C99.9122 49.5227 98.9309 46.548 98.9309 42.684C98.9309 38.7893 99.8815 35.37 101.783 32.426C103.684 29.4513 106.199 27.5807 109.327 26.814C109.664 26.814 109.971 26.9213 110.247 27.136C110.554 27.32 110.707 27.5193 110.707 27.734C107.61 29.8807 105.754 32.8707 105.141 36.704C105.785 34.9867 106.567 33.4993 107.487 32.242C108.438 30.9847 109.419 30.034 110.431 29.39C112.363 28.194 114.249 27.596 116.089 27.596ZM136.751 38.13C136.261 40.8593 135.877 43.282 135.601 45.398C135.325 47.514 135.187 49.676 135.187 51.884C135.187 54.092 135.402 55.6713 135.831 56.622C133.47 56.0087 131.845 55.0733 130.955 53.816C130.066 52.528 129.621 50.7187 129.621 48.388C129.621 46.3333 129.943 43.5273 130.587 39.97C131.231 36.382 131.645 33.9593 131.829 32.702C130.235 32.978 128.533 33.5147 126.723 34.312C126.662 33.6373 126.631 33.1313 126.631 32.794C126.631 31.1687 127.122 30.0647 128.103 29.482C129.085 28.8687 130.495 28.5467 132.335 28.516C132.55 26.216 132.657 24.56 132.657 23.548C132.657 22.536 132.642 21.6927 132.611 21.018C132.611 20.3433 132.611 19.8373 132.611 19.5C134.635 19.7147 136.107 20.328 137.027 21.34C137.947 22.3213 138.407 23.732 138.407 25.572C138.407 26.308 138.331 27.3353 138.177 28.654C140.753 28.5927 142.639 28.0867 143.835 27.136C143.897 27.7493 143.927 28.2093 143.927 28.516C143.927 29.988 143.667 31.0153 143.145 31.598C142.624 32.15 141.75 32.426 140.523 32.426C139.297 32.426 138.361 32.4107 137.717 32.38C137.564 33.484 137.242 35.4007 136.751 38.13ZM146.768 46.456C146.768 45.168 147.013 42.8373 147.504 39.464C147.994 36.0907 148.24 33.4687 148.24 31.598C148.24 29.7273 148.148 28.286 147.964 27.274C148.638 27.2127 149.267 27.182 149.85 27.182C151.628 27.182 152.855 27.4887 153.53 28.102C154.235 28.6847 154.588 29.6967 154.588 31.138C154.588 31.598 154.204 34.0207 153.438 38.406C152.702 42.7607 152.318 46.364 152.288 49.216C152.288 52.0373 152.472 53.862 152.84 54.69C150.448 54.0767 148.838 53.1567 148.01 51.93C147.182 50.6727 146.768 48.848 146.768 46.456ZM153.024 23.318C149.865 23.318 148.286 22.214 148.286 20.006C148.286 19.2087 148.516 18.12 148.976 16.74C149.834 16.6173 150.586 16.556 151.23 16.556C154.388 16.556 155.968 17.66 155.968 19.868C155.968 20.6653 155.738 21.754 155.278 23.134C154.419 23.2567 153.668 23.318 153.024 23.318ZM174.151 30.954C172.158 30.954 170.379 32.3033 168.815 35.002C167.251 37.67 166.469 40.338 166.469 43.006C166.469 48.5873 167.91 51.378 170.793 51.378C172.848 51.378 174.519 50.044 175.807 47.376C177.095 44.6773 177.739 41.6567 177.739 38.314C177.739 33.4073 176.543 30.954 174.151 30.954ZM177.003 27.596C178.843 27.596 180.407 28.5007 181.695 30.31C182.983 32.1193 183.627 34.542 183.627 37.578C183.627 40.982 182.937 44.11 181.557 46.962C180.024 50.182 177.846 52.4053 175.025 53.632C173.43 54.3373 171.682 54.69 169.781 54.69C167.113 54.69 164.782 53.6627 162.789 51.608C160.826 49.5227 159.845 46.548 159.845 42.684C159.845 38.7893 160.796 35.37 162.697 32.426C164.598 29.4513 167.113 27.5807 170.241 26.814C170.578 26.814 170.885 26.9213 171.161 27.136C171.468 27.32 171.621 27.5193 171.621 27.734C168.524 29.8807 166.668 32.8707 166.055 36.704C166.699 34.9867 167.481 33.4993 168.401 32.242C169.352 30.9847 170.333 30.034 171.345 29.39C173.277 28.194 175.163 27.596 177.003 27.596ZM206.544 27.458C208.353 27.458 209.641 28.0253 210.408 29.16C211.205 30.264 211.604 31.782 211.604 33.714C211.604 35.6153 211.297 38.2987 210.684 41.764C210.101 45.2293 209.81 47.7593 209.81 49.354C209.81 50.918 210.009 52.068 210.408 52.804C210.806 53.5093 211.481 54.1227 212.432 54.644C212.033 54.6747 211.466 54.69 210.73 54.69C208.154 54.69 206.314 54.2913 205.21 53.494C204.136 52.6967 203.6 51.3013 203.6 49.308C203.6 48.1733 203.906 45.9653 204.52 42.684C205.133 39.372 205.44 36.9033 205.44 35.278C205.44 33.254 204.826 32.242 203.6 32.242C202.894 32.242 202.097 32.656 201.208 33.484C200.318 34.312 199.46 35.4467 198.632 36.888C197.804 38.2987 197.114 40.1233 196.562 42.362C196.01 44.6007 195.734 46.8393 195.734 49.078C195.734 51.286 195.826 52.9267 196.01 54C195.028 54.0613 194.384 54.092 194.078 54.092C192.33 54.092 191.072 53.7853 190.306 53.172C189.539 52.5587 189.156 51.5467 189.156 50.136C189.156 49.5227 189.478 47.1613 190.122 43.052C190.766 38.9427 191.088 35.6767 191.088 33.254C191.088 30.8007 190.827 28.5467 190.306 26.492C192.544 27.1973 194.108 28.2093 194.998 29.528C195.887 30.816 196.332 32.3033 196.332 33.99C196.332 35.646 196.148 37.578 195.78 39.786C196.792 36.3513 198.386 33.438 200.564 31.046C202.741 28.654 204.734 27.458 206.544 27.458Z" fill="#151515"/>
<defs>
<clipPath id="clip0_1202_171">
<rect width="44" height="69.6805" fill="white"/>
</clipPath>
</defs>
</svg>
