<svg width="44" height="70" viewBox="0 0 44 70" fill="none" xmlns="http://www.w3.org/2000/svg">
<g clip-path="url(#clip0_3_162)">
<path d="M29.8253 21.4326C29.8253 11.435 24.9544 2.82486 21.2447 0.0302535C21.2447 0.0302535 20.9593 -0.127189 20.9888 0.276258C20.6838 19.5925 10.8141 24.8275 5.39217 31.873C-7.12451 48.1486 4.50656 65.9888 16.3738 69.2853C22.9864 71.1352 14.8387 66.0184 13.7858 55.2237C12.4968 42.1953 29.8253 32.2371 29.8253 21.4326V21.4326Z" fill="#1B2143"/>
<path d="M35.5129 28.0157C35.4342 27.9665 35.3259 27.9271 35.2571 28.055C35.0504 30.4856 32.5707 35.6812 29.4218 40.4635C18.7453 56.6604 24.8265 64.4735 28.2509 68.6752C30.2386 71.1057 28.2509 68.6752 33.2103 66.1856C39.3407 62.4661 43.3161 56.0306 43.9066 48.8866C44.8807 37.3737 37.9729 30.1215 35.5129 28.0157V28.0157Z" fill="#2CA6E0"/>
</g>
<defs>
<clipPath id="clip0_3_162">
<rect width="44" height="69.6805" fill="white"/>
</clipPath>
</defs>
</svg>
